<svg xmlns="http://www.w3.org/2000/svg" viewBox="0 0 928.98 892.58"><defs><style>.cls-1{fill:#504B3E;}</style></defs><title>Лого белый-</title><g id="Слой_2" data-name="Слой 2"><g id="Слой_2-2" data-name="Слой 2"><path class="cls-1" d="M616.33,780.23c-.83-2.66-8.66-24.67-22-63.63l-2.55-14.44H344.23l-4.72,14.44c-13.37,39-21.19,61-22,63.63-1.69,5.48-.16,13,10.57,9.58,10.55-3.34,42.81-15.56,43.84-16-.68.35-1.59,4.93-1.81,5.6-3.18,9.79-6.84,19.47-10.37,29.17-1.38,3.82-3.6,10.24.12,13.54,1.86,1.65,4.7,1.78,7.12,1.19,16.41-4,32.34-12.48,47-21.44,13.56,7,26.38,11.67,53,11.67s39.41-4.7,53-11.67c14.63,9,30.56,17.44,47,21.44,2.42.59,5.26.46,7.12-1.19,3.7-3.3,1.49-9.72.11-13.54-3.53-9.7-7.19-19.38-10.37-29.17-.22-.67-1.13-5.25-1.81-5.6,1,.4,33.28,12.62,43.84,16C616.51,793.19,618,785.71,616.33,780.23ZM356.24,748.79c4.09-9.34,9.61-26.28,10.74-32.19s16.1-5.82,16.1-5.82,31.79-7.63,18.93,5.82S369.52,740.88,356.24,748.79Zm43.09,24c3.68-6.3,5.74-16.38,5.74-16.38s19-7.78,39.93-39.81C434.46,739.59,421.46,760.66,399.33,772.79Zm67.59,15a58.9,58.9,0,0,1-25.68-5.85c14.69-11.12,25-33.15,25-33.15s11.61,22,26.3,33.15A61.19,61.19,0,0,1,466.92,787.79ZM488.8,716.6c20.92,32,39.94,39.81,39.94,39.81s2.07,10.08,5.75,16.38C512.35,760.66,499.35,739.59,488.8,716.6Zm43,0c-12.85-13.45,18.93-5.82,18.93-5.82s15-.08,16.1,5.82,6.65,22.85,10.75,32.19C564.29,740.88,544.66,730.06,531.8,716.6Z"/><path class="cls-1" d="M753.31,107.73q-12.82-11.06-26.47-21.15a442.55,442.55,0,0,0-521.93-3q-13.78,9.92-26.72,20.87A448.35,448.35,0,0,0,27,528.33Q29,539.61,31.7,550.69H66.61q-1-3.93-2-7.89c-1.14-4.76-2.21-9.61-3.17-14.47-.42-2.05-.82-4.12-1.2-6.18a416.74,416.74,0,0,1-6.92-75.86,412.44,412.44,0,0,1,146.71-316c1.76-1.48,3.54-3,5.34-4.43,6.26-5.11,12.74-10.09,19.33-14.82q4.11-3,8.3-5.84a405.7,405.7,0,0,1,208.26-70.7,53,53,0,0,1,50.47.33,406.77,406.77,0,0,1,74.5,12q13.92,3.59,27.58,8.18a407.65,407.65,0,0,1,104.64,52.9c2.77,1.95,5.52,3.92,8.25,5.94,6.43,4.74,12.84,9.78,19.11,15,1.79,1.48,3.57,3,5.33,4.51A416.46,416.46,0,0,1,835.58,271.26a410.55,410.55,0,0,1,38.68,175,417,417,0,0,1-7,75.92c-.38,2-.76,4.08-1.18,6.12-1,4.85-2,9.71-3.19,14.5q-.93,4-2,7.86H895.9q2.65-11.09,4.73-22.36a448.29,448.29,0,0,0-147.32-420.6Zm38.48,586.52c-.46.62-.93,1.25-1.41,1.87q-8,10.5-16.62,20.48a414.28,414.28,0,0,1-124.88,97.91,409,409,0,0,1-370.16,0A414.66,414.66,0,0,1,153.83,716.6q-8.69-10-16.66-20.52l-1.4-1.83H94.32c.57.87,1.15,1.73,1.74,2.59q6.81,10.08,14.17,19.76c81.17,107,209.33,176,353.57,176s272.4-69,353.57-176q7.56-9.92,14.55-20.31c.46-.67.91-1.35,1.38-2Z"/><path class="cls-1" d="M753.31,107.73a444.71,444.71,0,0,1-285.6,103.11A444.68,444.68,0,0,1,178.19,104.42q12.93-11,26.72-20.88c71.72,60.2,163.18,96.26,262.8,96.26,97.92,0,188-34.85,259.13-93.22Q740.49,96.65,753.31,107.73Z"/><path class="cls-1" d="M566.26,46.82a98.77,98.77,0,0,0-20.4-39.21A446.76,446.76,0,0,0,384.92,7a99.26,99.26,0,0,0-20.71,39.05,97.86,97.86,0,0,0-3.3,25.24c0,55.61,46.67,100.69,104.23,100.69S569.37,126.91,569.37,71.3A97.35,97.35,0,0,0,566.26,46.82Zm-100,83.46c-28.76,0-52.06-22.84-52.06-51a50.81,50.81,0,0,1,27.13-44.78,53,53,0,0,1,50.47.33,50.85,50.85,0,0,1,26.53,44.45C518.29,107.44,495,130.28,466.22,130.28Z"/><path class="cls-1" d="M469.69,39.81l4.72,13.83a3.66,3.66,0,0,0,3.47,2.47h14.87a3.66,3.66,0,0,1,2.08,6.68l-11.71,8.09a3.66,3.66,0,0,0-1.38,4.2l4.54,13.31a3.65,3.65,0,0,1-5.54,4.19L468.3,84a3.68,3.68,0,0,0-4.16,0l-12.43,8.59a3.66,3.66,0,0,1-5.55-4.19l4.55-13.31a3.68,3.68,0,0,0-1.38-4.2l-11.72-8.09a3.67,3.67,0,0,1,2.08-6.68h14.88A3.66,3.66,0,0,0,458,53.64l4.72-13.83A3.66,3.66,0,0,1,469.69,39.81Z"/><path class="cls-1" d="M225,183l4.72,13.82a3.67,3.67,0,0,0,3.47,2.48H248a3.66,3.66,0,0,1,2.09,6.67l-11.72,8.1a3.65,3.65,0,0,0-1.38,4.19l4.55,13.31a3.66,3.66,0,0,1-5.55,4.2l-12.43-8.59a3.66,3.66,0,0,0-4.17,0L207,235.76a3.66,3.66,0,0,1-5.55-4.2L206,218.25a3.65,3.65,0,0,0-1.38-4.19L192.89,206a3.66,3.66,0,0,1,2.08-6.67h14.87a3.67,3.67,0,0,0,3.47-2.48L218,183A3.66,3.66,0,0,1,225,183Z"/><path class="cls-1" d="M709.64,183l4.73,13.82a3.66,3.66,0,0,0,3.46,2.48h14.88a3.66,3.66,0,0,1,2.08,6.67l-11.71,8.1a3.65,3.65,0,0,0-1.39,4.19l4.55,13.31a3.66,3.66,0,0,1-5.55,4.2l-12.43-8.59a3.64,3.64,0,0,0-4.16,0l-12.44,8.59a3.66,3.66,0,0,1-5.54-4.2l4.55-13.31a3.65,3.65,0,0,0-1.39-4.19L677.57,206a3.66,3.66,0,0,1,2.08-6.67h14.88a3.66,3.66,0,0,0,3.46-2.48L702.71,183A3.66,3.66,0,0,1,709.64,183Z"/><path class="cls-1" d="M831.92,694.25v2q-7,10.38-14.55,20.31H110.23q-7.38-9.66-14.18-19.76v-2.59Z"/><path class="cls-1" d="M900.63,528.33q-2.08,11.28-4.73,22.36H31.7Q29,539.6,27,528.33Z"/><path class="cls-1" d="M441.73,547.12a13.85,13.85,0,0,1-16.59-10c-.85-3-1.74-5.93-2.67-8.83-16.19-51.41-42.21-91.14-72-121.87a313.89,313.89,0,0,0-28.78-26.24,357.06,357.06,0,0,0-65.57-41.64c-9.65-4.78-19.09-9-28.12-12.62a477.52,477.52,0,0,0-68-21.51c6.51,85.72,33.62,160.22,85.76,223.88,4.78,5.85,2.83,15.12-3.1,19.8a13.65,13.65,0,0,1-5.3,2.56h-6.19a15.4,15.4,0,0,1-7.72-4.84q-7.41-8.25-14.33-17.52c-44.59-59.67-73.31-149-77.36-237.53-.22-4.82,0-11.46,3.66-14.67s10.08-2.53,14.83-1.75c2.8.47,69.36,11.89,141.5,53.8,12.32,7.16,23.91,14.44,34.82,22.06,8.9,6.21,17.35,12.62,25.39,19.37a291.77,291.77,0,0,1,33.52,32.9,314.8,314.8,0,0,1,65.64,125.82c.19.74.38,1.47.56,2.21A13.66,13.66,0,0,1,441.73,547.12Z"/><path class="cls-1" d="M308.74,550.82a13.68,13.68,0,0,1-11.45-6.17c-18-27.45-34.35-55.26-45.27-84.83-16.28-44.09-22.94-91.65-24.25-141.56a13.68,13.68,0,1,1,27.35-.72c2.09,79.25,23.36,148.63,65,212.09a13.67,13.67,0,0,1-11.42,21.19Z"/><path class="cls-1" d="M699.62,549.76a13.68,13.68,0,0,1-10.74-22.15c49.89-63.28,78.43-138.73,84.94-224.46-51,12.36-223.55,66-265.15,232.71a13.68,13.68,0,0,1-26.55-6.62,301.12,301.12,0,0,1,65-125c25.54-29.56,57.49-55.59,94.95-77.36,72.14-41.92,138.7-53.33,141.5-53.8,4.76-.79,10.43-.5,14,2.7s4.68,8.91,4.46,13.73c-4.47,97.72-35.32,183.53-91.69,255A13.67,13.67,0,0,1,699.62,549.76Z"/><path class="cls-1" d="M625.07,550.82a13.67,13.67,0,0,1-11.42-21.19c41.68-63.46,63-132.84,65-212.09a13.68,13.68,0,1,1,27.35.72c-1.31,49.91-10.23,97.57-26.51,141.66a414.14,414.14,0,0,1-43,84.73A13.68,13.68,0,0,1,625.07,550.82Z"/><path class="cls-1" d="M557.1,547.16a13.63,13.63,0,0,1-5.83-1.31c-6.83-3.22-11.76-11.12-8.54-18,1.95-4.15,4.29-8.28,6.29-12.88,13.63-31.41,31.27-60.4,34.82-106.43,3.09-40-14.89-78.53-38.81-107.75-21.06-25.73-49.64-37.36-78.12-37.36s-54.77,10.66-79.07,37.74c-23.28,25.94-39.67,62.57-38.15,93.57,2.83,57.68,20.54,92,34.47,120.05,2.23,4.49,5.25,10.16,7.21,14.31,3.22,6.84-2,13.49-8.83,16.71a13.68,13.68,0,0,1-18.21-6.55c-1.83-3.89-5.64-6.61-7.81-11-14.27-28.73-34.11-73.22-35.17-132.87-.68-38.28,9.88-77.86,46-113.51,7.95-7.85,15.17-15.33,23.86-21.34,23-15.94,49.51-24.51,75.69-24.51A134.8,134.8,0,0,1,547,262.59C554.28,268,559.87,275,566.46,282c30.25,31.78,47.88,75.27,46,113.51-3.11,63.39-21.27,102.78-35.54,131.52-2.17,4.35-5.6,8.43-7.44,12.32A13.68,13.68,0,0,1,557.1,547.16Z"/><path class="cls-1" d="M421.46,310.49a42.15,42.15,0,1,0,42.14,42.15A42.1,42.1,0,0,0,421.46,310.49Zm0,57.84a15.7,15.7,0,1,1,15.7-15.69A15.71,15.71,0,0,1,421.46,368.33Z"/><path class="cls-1" d="M523.23,311.91a42.15,42.15,0,0,0-40.74,70.47,42.15,42.15,0,1,0,40.74-70.47Zm-10.88,56.42A15.7,15.7,0,1,1,528,352.64,15.7,15.7,0,0,1,512.35,368.33Z"/><path class="cls-1" d="M627.58,267.39c-3.37-3.64-36.46-35.55-160.68-35.55s-157.31,31.91-160.66,35.55-6.46,12.23-4.3,16.59,9.17,3.5,14,3c17.49-1.66,32.39-1.43,45.57,1a93.23,93.23,0,0,1,29.14,10.18,101,101,0,0,1,17.44,12.33c.6.54,1.21,1.07,1.8,1.61,21.19,19.18,36.84,46.8,41.4,65.38.34,1.36.64,2.69.93,4,1.13,5.22,1.85,9.7,2.29,13.09.54,4.22.68,6.74.68,6.85a11.72,11.72,0,0,0,11.69,11.23h0a11.73,11.73,0,0,0,11.72-11.23,139.64,139.64,0,0,1,3.87-19c5.16-19.37,16.62-49.47,40.74-70.47a100.58,100.58,0,0,1,49-23.57c13.46-2.53,28.51-2.95,45.62-1.32,4.85.46,10.69,1.4,12.84-2.95S630.88,271,627.58,267.39Zm-81.14,1.21a82,82,0,0,0-25.92,10.32c-6.7,4.15-12.54,9.13-19.18,14.95-18.42,16.09-27.29,29.38-34.44,47.28-7.14-17.9-13.46-28.17-31.88-44.27a208.86,208.86,0,0,0-22.25-17.46,106.8,106.8,0,0,0-16.08-8.89c-4.59-2-7.21-5.87-5.93-8.3a4.09,4.09,0,0,1,2.71-1.89,8.14,8.14,0,0,1,.81-.18c17.7-3.08,39.09-4.86,72.62-4.86a526,526,0,0,1,65,3.66,37.57,37.57,0,0,1,12.45,3.54,11.17,11.17,0,0,1,3.68,2.78C549.17,266.77,548.74,268.07,546.44,268.6Z"/><path class="cls-1" d="M13,560.21s-.56,5.57-1.22,6.42h27.5c1.14,18.69-4.45,53.63-17.56,78.6-6.78,12.91-11.24,14.37-15.16,16.35A27.84,27.84,0,0,1,3.21,660L0,663.64l17.5,17.61s21-27.51,25.52-59.11a380,380,0,0,0,4-55.51H57.43c3.91,0,12.43-1.44,13,13.54s5.65,60.39,6.21,69.72,2.26,14.13-4.8,18.79-20.2,3.67-20.2,3.67v6.78h55.24v-6.92s-8.8,4-10.83-20.77-6-61.31-6.27-67.53-1.13-17.28,5.51-17.28v-6.42Z"/><path class="cls-1" d="M252.21,557.66s-43,18.29-49.84,54.65H169.18V577.59c0-12.14,12.49-11,15.69-11V560.2l-44.36,0a12.24,12.24,0,0,0-3.54-6.78c-3.24-3.38-12.14-2.68-15,1.13s.29,9.89,7.2,10,9.89,1.69,14.27,4.53,5.94,6.39,5.94,14.87v77.75c0,12.15-12.47,11-15.68,11,0,2.45,0,6.4,0,6.4h44.36a12.38,12.38,0,0,0,3.53,6.79c3.26,3.38,12.16,2.68,15-1.13s-.28-9.89-7.2-10-9.89-1.69-14.28-4.51-5.93-6.42-5.93-14.88v-27H201.8c4.15,38.21,45.61,52.84,45.61,52.84s48-9.7,48-56S252.21,557.66,252.21,557.66Zm18.55,105.23c-11.59,0-32.5-3-47-26.42s-12.7-56,15.68-56c24.31,0,43.24,29,43.24,47.62S282.34,662.89,270.76,662.89Z"/><path class="cls-1" d="M503.63,557.66s-50.77,21.59-50.77,64.48,46,59.11,46,59.11,48-9.7,48-56S503.63,557.66,503.63,557.66Zm18.55,105.23c-11.58,0-32.49-3-47-26.42s-12.72-56,15.68-56c24.29,0,43.23,29,43.23,47.62S533.76,662.89,522.18,662.89Z"/><path class="cls-1" d="M319.36,560H349l25.71,62.1S393.39,580,395,576.56s1.65-9.74-6.36-9.74V560H429.7v6.64s-8.62.28-8.62,8.33v79.21c0,5.46.38,19.4,10,19.4v5.51h-39V672.4s8.95-.9,8.95-9.51v-76l-31.64,78L336.88,591v72.75c0,8.62-2,22.61-8.05,31.65s-8.48,0-8.48,0,5.51-9.46,5.51-25V582.22c0-5.09-1.69-13.85-6.5-13.85Z"/><path class="cls-1" d="M666.35,639.72s-10.93,25-37.11,25-36-24.3-36-52,15.44-41.07,31.27-41.07,20.48,12.34,18.6,16.11l3.58,4.85,18-16.88s-14.34-18.13-36.24-18.13-56.13,16.27-56.13,64c0,19,10.74,59.55,49.73,59.55,28.82,0,49.16-36.26,49.16-36.26Z"/><path class="cls-1" d="M751.11,581.7c4.67,1.08,14.51,5.84,18.28,10.92,2.45-1.88,8.1-17.14,25.33-17.14,2.16,0,5.31.31,6.89,1.69,9.22,8,12.33,42.67-8.58,42.67-9.23,0-18.09-6.78-20.72-10.92-2.26,4.52-13.57,23.45-18.79,35.32S741.08,674.75,741.37,676s3.81,5.22,4.66,5.22,5.37-5.93,15.68-5.93,27.13,5.93,39.84,5.93,27.41-7.06,32.92-41.67a16.06,16.06,0,0,0-5-1.28s-4.38,21.76-19.63,21.76c-8.62,0-14-5.65-26.14-5.65-10.17,0-21.62,7.91-21.62,7.91s10.6-37.86,35.47-37.86A25.62,25.62,0,0,1,816,632.23s10-14.55,10-29.53a40.24,40.24,0,0,0-8.33-23.31c-7.46-9.55-19.7-17-32.5-23.17C785.16,556.22,760.58,569.74,751.11,581.7Z"/><path class="cls-1" d="M845.62,581.7c4.66,1.08,14.51,5.84,18.27,10.92,2.45-1.88,8.1-17.14,25.34-17.14,2.16,0,5.3.31,6.89,1.69,9.22,8,12.32,42.67-8.58,42.67-9.23,0-18.09-6.78-20.73-10.92-2.26,4.52-13.56,23.45-18.79,35.32S835.59,674.75,835.87,676s3.82,5.22,4.67,5.22,5.36-5.93,15.68-5.93,27.12,5.93,39.84,5.93,27.41-7.06,32.92-41.67a16.13,16.13,0,0,0-5-1.28s-4.38,21.76-19.64,21.76c-8.61,0-14-5.65-26.13-5.65-10.17,0-21.62,7.91-21.62,7.91s10.6-37.86,35.46-37.86a25.63,25.63,0,0,1,18.37,7.77s10-14.55,10-29.53a40.31,40.31,0,0,0-8.33-23.31c-7.46-9.55-19.7-17-32.5-23.17C879.67,556.22,855.09,569.74,845.62,581.7Z"/></g></g></svg>